<svg preserveAspectRatio="none" width="100%" height="100%" overflow="visible" style="display: block;" viewBox="0 0 32.1692 32.1699" fill="none" xmlns="http://www.w3.org/2000/svg">
<g id="Group 467">
<path id="Subtract" d="M25.0747 26.9043L28.2101 28.4365C28.989 28.8172 29.9315 28.4787 30.2387 27.6679C31.1364 25.2982 31.8422 22.467 32.0814 19.5521C32.3544 16.2251 32.017 12.8233 30.696 9.87964L30.6941 9.88045C30.6354 9.75361 30.5757 9.62712 30.5151 9.50105C30.0606 8.62914 29.2093 7.55976 27.9555 6.85218C26.5424 6.05464 24.5792 5.69369 22.0031 6.65866C21.4566 6.86338 20.9002 7.12792 20.3422 7.4435C21.0431 8.63582 21.5451 10.2439 21.585 12.3643C21.6211 14.2807 21.3102 16.0955 20.8338 17.7124L25.5363 19.4583C26.4915 19.813 27.1169 20.7572 26.9385 21.7604C26.6876 23.1718 26.2454 24.5455 25.6273 25.8478C25.4601 26.1999 25.2763 26.5534 25.0747 26.9043Z" fill="var(--fill-0, #0B4FD4)"/>
<path id="Subtract_2" d="M9.77089 25.6326C10.1564 25.5165 10.5636 25.3486 10.9909 25.1152C12.8005 24.1265 14.1691 22.512 15.142 20.9282C15.7912 19.8714 16.2748 18.8112 16.6015 17.9254C16.7313 17.5736 17.1195 17.3828 17.471 17.5133L24.9862 20.3036C25.6448 20.5481 26.0598 21.2103 25.9178 21.8984C25.7035 22.9366 25.3287 24.1773 24.7363 25.4255C23.8069 27.3834 22.3587 29.3257 20.1917 30.5535C18.4011 31.5679 16.5698 32.0913 14.8579 32.1699C12.9927 31.8543 11.7691 31.0447 10.9895 29.9635C10.1642 28.8188 9.79717 27.3145 9.77089 25.6326Z" fill="var(--fill-0, #0B4FD4)"/>
<path id="Subtract_3" d="M14.2995 0.144033C18.908 -0.395263 22.3323 0.624326 24.9315 2.4596C26.3125 3.43476 27.4724 4.64856 28.456 6.002L28.4454 5.99601C26.7677 5.04918 24.4981 4.67394 21.6585 5.73759C17.8464 7.1655 13.7369 11.1892 11.5491 15.2926C10.13 17.9542 8.73051 22.0353 8.78342 25.6374C8.80994 27.4428 9.2022 29.1734 10.1879 30.5406C10.5311 31.0165 10.9414 31.4418 11.4239 31.8076C7.91344 30.9344 3.49641 28.5029 1.11599 22.8982C-0.961351 18.0072 0.0263688 12.5931 2.71782 8.24151C5.41339 3.88331 9.76643 0.674505 14.2995 0.144033Z" fill="var(--fill-0, #0B4FD4)"/>
</g>
</svg>
